<svg width="1600" height="900" viewBox="0 0 1600 900" xmlns="http://www.w3.org/2000/svg"><rect width="1600" height="900" fill="#082a38"/><path d="M0 250 C 280 200, 500 340, 840 280 C 1130 230, 1360 320, 1600 270" fill="none" stroke="#5ec2ff" stroke-width="20" opacity="0.8"/><path d="M0 470 C 280 420, 500 560, 840 500 C 1130 450, 1360 540, 1600 490" fill="none" stroke="#2bc49b" stroke-width="20" opacity="0.7"/><path d="M0 700 C 280 650, 500 790, 840 730 C 1130 680, 1360 770, 1600 720" fill="none" stroke="#8fd2ff" stroke-width="20" opacity="0.7"/><g fill="#ffd166" opacity="0.8"><circle cx="260" cy="460" r="8"/><circle cx="420" cy="278" r="7"/><circle cx="780" cy="514" r="8"/><circle cx="990" cy="252" r="6"/><circle cx="1230" cy="720" r="8"/><circle cx="1440" cy="496" r="7"/></g></svg>