<svg width="1600" height="900" viewBox="0 0 1600 900" xmlns="http://www.w3.org/2000/svg"><rect width="1600" height="900" fill="#031827"/><path d="M0 230 C 320 160, 640 280, 980 210 C 1240 160, 1440 250, 1600 200 V900 H0Z" fill="#07253a"/><path d="M120 720 C 420 590, 740 760, 1100 650 C 1320 580, 1450 650, 1540 620" stroke="#1f78d1" stroke-width="10" fill="none" opacity="0.8"/><path d="M80 790 C 390 680, 710 830, 1060 730 C 1280 670, 1440 740, 1540 710" stroke="#2bc49b" stroke-width="8" fill="none" opacity="0.8"/><g fill="#8fd2ff"><circle cx="420" cy="500" r="15"/><circle cx="620" cy="430" r="15"/><circle cx="780" cy="560" r="15"/><circle cx="960" cy="470" r="15"/><circle cx="1140" cy="550" r="15"/></g><g stroke="#8fd2ff" stroke-width="4" opacity="0.8"><path d="M420 500L620 430L780 560L960 470L1140 550"/></g></svg>