<svg width="1600" height="900" viewBox="0 0 1600 900" xmlns="http://www.w3.org/2000/svg"><rect width="1600" height="900" fill="#111827"/><path d="M80 520 C 180 300, 300 700, 420 430 C 560 120, 670 760, 790 460 C 900 180, 1030 700, 1150 470 C 1260 240, 1380 620, 1520 420" stroke="#8fd2ff" stroke-width="10" fill="none"/><path d="M80 620 C 220 460, 340 760, 470 560 C 620 330, 710 790, 850 590 C 960 430, 1120 760, 1240 600 C 1360 470, 1450 690, 1520 580" stroke="#2bc49b" stroke-width="8" fill="none" opacity="0.9"/><g fill="#1f78d1" opacity="0.85"><circle cx="260" cy="510" r="16"/><circle cx="540" cy="430" r="16"/><circle cx="850" cy="590" r="16"/><circle cx="1180" cy="470" r="16"/></g></svg>